name processed_emg_signals
nRows=68
nColumns=7
 
endheader
time	RGLTMED	RRF	RADDLONG	RBF	RTA	RGM
5.327800000000004	0.0092979736860767	0.0299193733587628	0.0102658038545653	0.3009017972550575	0.9999077145348207	0.0629846816955619
5.337800000000005	0.0092713245142693	0.0298134694009494	0.0102099121942222	0.3009911572162929	1.0	0.0626320962534839
5.347800000000005	0.0092451064508863	0.0297024967028104	0.0101549600904551	0.3009045237629178	0.9996173307209796	0.0622558529928325
5.357800000000005	0.0092193114749452	0.0295866105670971	0.0101009702742569	0.3006418818155383	0.998761845812298	0.0618565202634573
5.367800000000004	0.0091939318939868	0.0294659725344612	0.0100479649428343	0.3002035203226317	0.9974365011299954	0.0614347044170101
5.377800000000004	0.0091689603896279	0.0293407501499785	0.0099959657430966	0.2995900264642154	0.9956450589385318	0.0609910481899634
5.387800000000005	0.0091443900596764	0.0292111167202407	0.0099449937540491	0.2988022792773434	0.9933920757250254	0.0605262290257256
5.397800000000005	0.0091202144566949	0.0290772510614515	0.0098950694682727	0.2978414427436054	0.9906828882246422	0.0600409573418675
5.407800000000004	0.0090964276229222	0.0289393372389352	0.0098462127726605	0.2967089583782262	0.9875235977248872	0.059535974748451
5.417800000000005	0.0090730241214861	0.0287975642984062	0.009798442928581	0.2954065373597116	0.9839210527184578	0.0590120522233765
5.427800000000005	0.0090499990638621	0.0286521259892875	0.0097517785516356	0.2939361522382587	0.9798828299765546	0.0584699882505689
5.437800000000005	0.009027348133562	0.0285032204803161	0.0097062375911767	0.2923000282602964	0.9754172141182836	0.0579106069267087
5.447800000000004	0.0090050676060632	0.0283510500676628	0.0096618373097478	0.2905006343455942	0.970533175756183	0.0573347560420612
5.457800000000004	0.008983154365017	0.0281958208758036	0.0096185942626035	0.2885406737524064	0.965240348301772	0.056743305140795
5.467800000000005	0.0089616059147978	0.0280377425514339	0.0095765242774637	0.2864230744650994	0.9595490035181276	0.0561371435659876
5.477800000000005	0.0089404203894773	0.0278770279507674	0.0095356424346489	0.2841509793376601	0.953470025909255	0.0555171784943102
5.4878000000000045	0.0089195965583336	0.0277138928206138	0.0094959630477411	0.281727736025393	0.9470148860382266	0.0548843329651862
5.497800000000005	0.0088991338280107	0.027548555473666	0.0094574996448956	0.2791568867360095	0.9401956128672568	0.0542395439090165
5.507800000000005	0.0088790322414569	0.0273812364584547	0.0094202649509145	0.2764421578302078	0.9330247652130385	0.0535837601788803
5.517800000000005	0.0088592924737642	0.0272121582244776	0.0093842708701696	0.2735874493007524	0.9255154024103504	0.0529179405899378
5.5278000000000045	0.0088399158250421	0.027041544783057	0.0093495284704459	0.2705968241579844	0.9176810542762808	0.0522430519705782
5.537800000000004	0.0088209042104663	0.026869621364513	0.0093160479677652	0.267474497748614	0.909535690466194	0.0515600672291709
5.547800000000005	0.0088022601476619	0.0266966140722377	0.0092838387122367	0.264224827033561	0.9010936893108482	0.050869963440104
5.557800000000005	0.0087839867415955	0.026522749534217	0.0092529091749805	0.2608522998495238	0.8923698062221073	0.0501737199526171
5.5678000000000045	0.0087660876671409	0.0263482545525029	0.0092232669361664	0.2573615241778786	0.8833791417526823	0.0494723165257765
5.577800000000005	0.008748567149485	0.0261733557511	0.0091949186742025	0.2537572174434639	0.8741371093930776	0.0487667314927823
5.587800000000005	0.0087314299425319	0.0259982792227213	0.009167870156103	0.2500441958647713	0.864659403186367	0.0480579399576395
5.597800000000005	0.0087146813054545	0.0258232501749117	0.0091421262290529	0.2462273638760574	0.8549619652386712	0.0473469120270826
5.607800000000005	0.0086983269775541	0.0256484925761356	0.0091176908131774	0.2423117036409179	0.8450609532003736	0.0466346110804846
5.617800000000004	0.0086823731515906	0.0254742288025232	0.0090945668955155	0.2383022646759346	0.8349727077901978	0.0459219920803233
5.627800000000005	0.0086668264457644	0.0253006792860579	0.0090727565251904	0.2342041536021255	0.8247137204313127	0.0452099999256211
5.637800000000005	0.0086516938745439	0.0251280621650211	0.0090522608097663	0.2300225240410595	0.8143006010656904	0.0444995678506069
5.647800000000005	0.008636982818545	0.0249565929375218	0.0090330799127819	0.2257625666716373	0.8037500462100878	0.0437916158706996
5.657800000000005	0.0086227009936598	0.024786484118947	0.0090152130524655	0.2214294994626638	0.7930788073142244	0.0430870492777797
5.667800000000005	0.0086088564196179	0.0246179449041786	0.0089986585016462	0.2170285580954555	0.7823036594789742	0.0423867571865949
5.677800000000005	0.0085954573881472	0.0244511808354189	0.0089834135888806	0.212564986589839	0.7714413705896606	0.0416916111340352
5.687800000000005	0.0085825124308832	0.024286393476457	0.0089694747008121	0.2080440281460148	0.7605086709168782	0.0410024637328885
5.697800000000004	0.0085700302871576	0.0241237800941836	0.0089568372857591	0.2034709162138855	0.7495222232346309	0.0403201473815552
5.707800000000005	0.0085580198717842	0.0239635333481286	0.0089454958585233	0.1988508658005817	0.738498593502952	0.0396454730310689
5.717800000000005	0.0085464902429413	0.0238058409887579	0.008935444006392	0.1941890650260755	0.7274542221596041	0.0389792290106359
5.727800000000005	0.0085354505702407	0.0236508855652197	0.0089266743963095	0.1894906669359418	0.7164053960629687	0.0383221799127726
5.737800000000005	0.0085249101030547	0.0234988441431878	0.0089191787831885	0.1847607815795228	0.7053682211258092	0.0376750655390008
5.747800000000005	0.0085148781391604	0.0233498880333857	0.0089129480193417	0.1800044683609744	0.6943585956771878	0.0370385999069178
5.757800000000005	0.0085053639937387	0.0232041825313335	0.0089079720650152	0.1752267286699226	0.6833921845874542	0.036413470319327
5.767800000000005	0.008496376968755	0.0230618866687797	0.008904240000019	0.1704324987977437	0.6724843941889885	0.0358003364959717
5.7778000000000045	0.0084879263227347	0.0229231529772367	0.0089017400364416	0.1656266431447947	0.6616503480232195	0.0351998297682795
5.787800000000005	0.0084800212409438	0.0227881272639724	0.0089004595324326	0.1608139477232542	0.6509048634423282	0.0346125523374096
5.797800000000005	0.0084726708059843	0.022656948400804	0.0089003850070196	0.1559991139595659	0.640262429091953	0.0340390765957956
5.807800000000005	0.0084658839688122	0.0225297481260425	0.0089015021559171	0.1511867527998281	0.629737183299195	0.0334799445122976
5.817800000000005	0.0084596695201825	0.0224066508599809	0.0089037958682786	0.1463813791208083	0.6193428933882662	0.0329356670809975
5.827800000000005	0.0084540360625248	0.022287773534349	0.0089072502443503	0.1415874064486287	0.6090929359442082	0.0324067238335855
5.837800000000005	0.0084489919822466	0.0221732254361716	0.0089118486139811	0.1368091419865346	0.5990002780432282	0.0318935624151785
5.847800000000005	0.0084445454224711	0.0220631080664397	0.0089175735559477	0.1320507819525521	0.5890774594663711	0.0313965982233188
5.857800000000005	0.0084407042562083	0.0219575150139696	0.0089244069180477	0.12731640722726	0.5793365759114729	0.030916214109814
5.867800000000005	0.008437476059963	0.0218565318447866	0.0089323298379128	0.1226099793113356	0.5697892632165719	0.0304527601450259
5.877800000000005	0.0084348680877719	0.0217602360073246	0.0089413227644748	0.1179353365920097	0.5604466826061995	0.0300065534441796
5.887800000000005	0.0084328872456565	0.0216686967536916	0.0089513654800157	0.1132961909170622	0.5513195069702693	0.0295778780552193
5.8978000000000055	0.0084315400664596	0.0215819750771917	0.0089624371227201	0.1086961244745315	0.5424179081836293	0.0291669849076962
5.907800000000005	0.0084308326850369	0.0215001236662361	0.0089745162096401	0.1041385869758675	0.533751545472746	0.0287740918221393
5.917800000000005	0.0084307708137616	0.021423186874724	0.0089875806599882	0.0996268931398348	0.5253295548344261	0.0283993835793044
5.927800000000005	0.0084313597183047	0.0213512007089438	0.0090016078186652	0.095164220474049	0.5171605395099625	0.0280430120486506
5.937800000000005	0.0084326041936573	0.0212841928310235	0.0090165744799205	0.0907536073506151	0.5092525615165855	0.0277050963753088
5.947800000000005	0.0084345085403723	0.0212221825789641	0.0090324569110405	0.0863979513719324	0.5016131342365846	0.0273857232247198
5.957800000000005	0.0084370765410126	0.0211651810032675	0.0090492308759464	0.0821000080223405	0.4942492160629257	0.0270849470840319
5.967800000000005	0.0084403114368168	0.0211131909201495	0.0090668716585932	0.0778623896009209	0.4871672050986337	0.0268027906192748
5.9778000000000056	0.0084442159046115	0.021066206981281	0.009085354086066	0.073687564430416	0.4803729349057332	0.0265392450872558
5.987800000000005	0.0084487920340244	0.0210242157599641	0.0091046525512947	0.0695778563368972	0.4738716712980896	0.0262942708010627
5.997800000000005	0.00845404130507	0.0209871958535896	0.0091247410353281	0.0655354443944861	0.4676681101710985	0.0260677976479891
